<svg xmlns="http://www.w3.org/2000/svg" viewBox="0 0 256 255">
  <defs>
    <linearGradient id="python-blue" x1="0%" y1="0%" x2="100%" y2="100%">
      <stop offset="0%" stop-color="#387EB8"/>
      <stop offset="100%" stop-color="#366994"/>
    </linearGradient>
    <linearGradient id="python-yellow" x1="0%" y1="0%" x2="100%" y2="100%">
      <stop offset="0%" stop-color="#FFE052"/>
      <stop offset="100%" stop-color="#FFC331"/>
    </linearGradient>
  </defs>

  <path fill="url(#python-blue)" d="M126.916 0c-10.31.048-20.127.927-28.73 2.463-25.373 4.515-29.982 13.965-29.982 31.41v23.045h59.965v7.682H68.204H45.68C28.066 64.6 12.5 75.395 7.657 96.038c-5.594 23.66-5.846 38.41 0 63.056 4.334 18.35 14.68 31.41 32.295 31.41h20.903v-27.77c0-20.056 17.36-37.73 37.73-37.73h59.92c16.68 0 29.982-13.73 29.982-30.41V33.873C188.486 16.825 174.174 4.021 156.586 1.09 147.25-.448 137.226-.048 126.916 0z"/>

  <path fill="url(#python-yellow)" d="M195.345 64.6v26.977c0 20.91-17.73 38.524-37.73 38.524h-59.92c-16.417 0-29.982 14.04-29.982 30.41v57.137c0 16.28 14.147 25.854 29.982 30.41 18.96 5.568 37.15 6.576 59.92 0 15.128-4.375 29.982-13.18 29.982-30.41v-23.045h-59.92v-7.682h59.92h29.982c17.615 0 24.177-12.28 29.982-31.41 6.002-19.697 5.746-38.627 0-63.056-4.132-17.58-12.35-31.41-29.982-31.41h-22.525z"/>

  <circle cx="94" cy="38" r="8" fill="#ffffff"/>
  <circle cx="162" cy="216" r="8" fill="#ffffff"/>
</svg>