<svg width="64" height="64" viewBox="0 0 256 255" xmlns="http://www.w3.org/2000/svg">
  <defs>
    <linearGradient id="a" x1="0%" y1="0%" y2="100%">
      <stop offset="0%" stop-color="#387EB8"/>
      <stop offset="100%" stop-color="#366994"/>
    </linearGradient>
    <linearGradient id="b" x1="0%" y1="0%" y2="100%">
      <stop offset="0%" stop-color="#FFE052"/>
      <stop offset="100%" stop-color="#FFC331"/>
    </linearGradient>
  </defs>
  <path fill="url(#a)"
    d="M126.916 0c-7.02.033-13.73.63-19.7 1.67C89.68 4.77 85.87 10.95 85.87 23.66v17.52h41.046v5.84H70.41c-12.8 0-23.99 7.7-27.5 22.36-4.05 16.79-4.23 27.27 0 44.8 3.14 13.03 10.63 22.36 23.43 22.36h15.16v-20.12c0-14.53 12.58-27.33 27.5-27.33h41.01c11.4 0 20.6-9.38 20.6-20.82V23.66c0-11.1-9.35-19.43-20.6-21.99C143.26.63 135.18-.04 126.92 0z"/>
  <path fill="url(#b)"
    d="M171.05 47.02v19.56c0 15.16-12.85 27.93-27.5 27.93h-41c-11.2 0-20.6 9.6-20.6 20.82v39.03c0 11.1 9.66 17.64 20.6 20.82 13.1 3.82 25.66 4.51 41 0 10.2-2.98 20.6-8.98 20.6-20.82v-15.63h-41v-5.2h61.6c12.8 0 17.57-8.92 20.6-20.82 3.13-12.27 3-24.06 0-41.64-2.16-12.7-7.8-20.82-20.6-20.82h-13.7z"/>
  <circle cx="97.5" cy="25.5" r="4.5" fill="#fff"/>
  <circle cx="158.5" cy="64.5" r="4.5" fill="#fff"/>
</svg>
